{"title":"Gossip Girl_S03_E06_Enough About Eve H264 AC3 6CH 720p BLI.mkv","uid":5188576,"size":711979803,"categoryP":"video","categoryS":"hd___tv_shows","magnet":"?xt=urn:btih:9559e11b00e8879b9743941a60f238a52fda17bc&amp;dn=Gossip+Girl_S03_E06_Enough+About+Eve+H264+AC3+6CH+720p+BLI.mkv&amp;tr=udp%3A%2F%2Ftracker.openbittorrent.com%3A80&amp;tr=udp%3A%2F%2Fopen.demonii.com%3A1337&amp;tr=udp%3A%2F%2Ftracker.coppersurfer.tk%3A6969&amp;tr=udp%3A%2F%2Fexodus.desync.com%3A6969","seeders":1,"leechers":0,"uploader":"blisbell","files":1,"time":1259580185,"description":"Video\nID                               : 1\nFormat                           : AVC\nFormat/Info                      : Advanced Video Codec\nFormat profile                   : &lt;a class=&quot;__cf_email__&quot; href=&quot;/cdn-cgi/l/email-protection&quot; data-cfemail=&quot;2860414f4068641b0619&quot;&gt;[email&amp;#160;protected]&lt;/a&gt;&lt;script cf-hash='f9e31' type=&quot;text/javascript&quot;&gt;\n/* &lt;![CDATA[ */!function(){try{var t=&quot;currentScript&quot;in document?document.currentScript:function(){for(var t=document.getElementsByTagName(&quot;script&quot;),e=t.length;e--;)if(t[e].getAttribute(&quot;cf-hash&quot;))return t[e]}();if(t&amp;&amp;t.previousSibling){var e,r,n,i,c=t.previousSibling,a=c.getAttribute(&quot;data-cfemail&quot;);if(a){for(e=&quot;&quot;,r=parseInt(a.substr(0,2),16),n=2;a.length-n;n+=2)i=parseInt(a.substr(n,2),16)^r,e+=String.fromCharCode(i);e=document.createTextNode(e),c.parentNode.replaceChild(e,c)}}}catch(u){}}();/* ]]&gt; */&lt;/script&gt;\nFormat settings, CABAC           : Yes\nFormat settings, ReFrames        : 3 frames\nMuxing mode                      : Container profile=&lt;a class=&quot;__cf_email__&quot; href=&quot;/cdn-cgi/l/email-protection&quot; data-cfemail=&quot;4a1f242124253d240a79647b&quot;&gt;[email&amp;#160;protected]&lt;/a&gt;&lt;script cf-hash='f9e31' type=&quot;text/javascript&quot;&gt;\n/* &lt;![CDATA[ */!function(){try{var t=&quot;currentScript&quot;in document?document.currentScript:function(){for(var t=document.getElementsByTagName(&quot;script&quot;),e=t.length;e--;)if(t[e].getAttribute(&quot;cf-hash&quot;))return t[e]}();if(t&amp;&amp;t.previousSibling){var e,r,n,i,c=t.previousSibling,a=c.getAttribute(&quot;data-cfemail&quot;);if(a){for(e=&quot;&quot;,r=parseInt(a.substr(0,2),16),n=2;a.length-n;n+=2)i=parseInt(a.substr(n,2),16)^r,e+=String.fromCharCode(i);e=document.createTextNode(e),c.parentNode.replaceChild(e,c)}}}catch(u){}}();/* ]]&gt; */&lt;/script&gt;\nCodec ID                         : V_MPEG4/ISO/AVC\nDuration                         : 40mn 47s\nBit rate                         : 1 831 Kbps\nWidth                            : 1 280 pixels\nHeight                           : 720 pixels\nDisplay aspect ratio             : 16:9\nFrame rate                       : 29.970 fps\nResolution                       : 24 bits\nColorimetry                      : 4:2:0\nScan type                        : Progressive\nBits/(Pixel*Frame)               : 0.066\nStream size                      : 534 MiB (79%)\nWriting library                  : x264 core 76 r1268 d542926\n\nAudio\nID                               : 2\nFormat                           : AC-3\nFormat/Info                      : Audio Coding 3\nCodec ID                         : A_AC3\nDuration                         : 40mn 49s\nBit rate mode                    : Constant\nBit rate                         : 448 Kbps\nChannel(s)                       : 6 channels\nChannel positions                : Front: L C R, Surround: L R, LFE\nSampling rate                    : 48.0 KHz\nVideo delay                      : 16ms\nStream size                      : 131 MiB (19%)\nLanguage                         : English","torrent":{"xt":"urn:btih:9559e11b00e8879b9743941a60f238a52fda17bc","amp;dn":"Gossip+Girl_S03_E06_Enough+About+Eve+H264+AC3+6CH+720p+BLI.mkv","amp;tr":["udp%3A%2F%2Ftracker.openbittorrent.com%3A80","udp%3A%2F%2Fopen.demonii.com%3A1337","udp%3A%2F%2Ftracker.coppersurfer.tk%3A6969","udp%3A%2F%2Fexodus.desync.com%3A6969"],"infoHash":"9559e11b00e8879b9743941a60f238a52fda17bc","infoHashBuffer":{"type":"Buffer","data":[149,89,225,27,0,232,135,155,151,67,148,26,96,242,56,165,47,218,23,188]},"announce":[],"urlList":[]}}